<svg xmlns="http://www.w3.org/2000/svg" xmlns:xlink="http://www.w3.org/1999/xlink" width="500" zoomAndPan="magnify" viewBox="0 0 375 374.999991" height="500" preserveAspectRatio="xMidYMid meet" version="1.0"><defs><g/><clipPath id="1550ae3b59"><path d="M 193 137 L 215.941406 137 L 215.941406 160 L 193 160 Z M 193 137 " clip-rule="nonzero"/></clipPath><clipPath id="f2e0ac1202"><path d="M 88.328125 143 L 159 143 L 159 256.433594 L 88.328125 256.433594 Z M 88.328125 143 " clip-rule="nonzero"/></clipPath><clipPath id="ef9074a298"><path d="M 65.941406 112.5 L 163 112.5 L 163 183 L 65.941406 183 Z M 65.941406 112.5 " clip-rule="nonzero"/></clipPath></defs><rect x="-37.5" width="450" fill="#ffffff" y="-37.499999" height="449.999989" fill-opacity="1"/><rect x="-37.5" width="450" fill="#ffffff" y="-37.499999" height="449.999989" fill-opacity="1"/><g clip-path="url(#1550ae3b59)"><path fill="#44a6d9" d="M 204.632812 137.949219 L 208.121094 146.164062 L 215.9375 146.164062 L 210.28125 151.679688 L 211.621094 159.464844 L 204.632812 155.78125 L 197.636719 159.464844 L 198.972656 151.679688 L 193.324219 146.164062 L 201.132812 146.164062 L 204.632812 137.949219 " fill-opacity="1" fill-rule="nonzero"/></g><path fill="#264790" d="M 179.375 115.703125 L 181.726562 121.238281 L 187 121.238281 L 183.1875 124.957031 L 184.089844 130.195312 L 179.375 127.71875 L 174.671875 130.195312 L 175.5625 124.957031 L 171.757812 121.238281 L 177.023438 121.238281 L 179.375 115.703125 " fill-opacity="1" fill-rule="nonzero"/><path fill="#44a6d9" d="M 163.449219 157.261719 L 164.996094 160.898438 L 168.453125 160.898438 L 165.949219 163.328125 L 166.546875 166.773438 L 163.449219 165.148438 L 160.363281 166.773438 L 160.957031 163.328125 L 158.457031 160.898438 L 161.910156 160.898438 L 163.449219 157.261719 " fill-opacity="1" fill-rule="nonzero"/><g clip-path="url(#f2e0ac1202)"><path fill="#44a6d9" d="M 97.457031 192.121094 C 92.457031 221.46875 111.082031 249.402344 139.53125 256.433594 C 138.148438 256.300781 136.75 256.117188 135.351562 255.871094 C 104.601562 250.644531 83.910156 221.449219 89.148438 190.703125 C 94.386719 159.953125 123.570312 139.253906 154.320312 144.492188 C 155.71875 144.738281 157.101562 145.027344 158.457031 145.359375 C 129.28125 142.578125 102.460938 162.761719 97.457031 192.121094 " fill-opacity="1" fill-rule="evenodd"/></g><path fill="#264790" d="M 182.847656 235.671875 C 136.347656 262.152344 90.453125 197.410156 130.828125 162.296875 C 129.535156 163.042969 128.257812 163.84375 127.015625 164.730469 C 106.65625 179.167969 101.847656 207.378906 116.277344 227.738281 C 130.714844 248.097656 158.929688 252.898438 179.289062 238.46875 C 180.53125 237.585938 181.71875 236.652344 182.847656 235.671875 " fill-opacity="1" fill-rule="evenodd"/><g clip-path="url(#ef9074a298)"><path fill="#264790" d="M 148.601562 129.089844 L 151.40625 135.871094 C 149.195312 135.632812 146.984375 135.519531 144.777344 135.519531 C 129.691406 135.519531 114.984375 140.878906 103.351562 150.605469 C 99.488281 153.832031 96.050781 157.480469 93.066406 161.457031 L 90.128906 154.347656 L 89.761719 153.464844 L 86.910156 153.265625 L 77.625 152.597656 L 71.003906 152.125 L 70.742188 152.109375 L 70.742188 171.804688 C 71.421875 172.207031 71.886719 172.941406 71.886719 173.78125 C 71.886719 174.496094 71.554688 175.144531 71.027344 175.554688 C 70.941406 175.632812 70.84375 175.703125 70.742188 175.757812 L 70.742188 177.917969 L 73.144531 182.726562 L 65.941406 182.726562 L 68.300781 178.003906 L 68.300781 175.886719 C 67.617188 175.496094 67.15625 174.761719 67.15625 173.910156 C 67.15625 173.117188 67.558594 172.417969 68.179688 172.003906 C 68.222656 171.96875 68.257812 171.933594 68.300781 171.910156 C 68.351562 171.875 68.398438 171.839844 68.457031 171.804688 L 68.457031 151.953125 L 108.011719 114.320312 L 152.527344 113.210938 L 162.59375 112.957031 L 148.601562 129.089844 " fill-opacity="1" fill-rule="evenodd"/></g><g fill="#264790" fill-opacity="1"><g transform="translate(125.701557, 204.151063)"><g><path d="M 15.640625 -5.328125 C 16.546875 -5.328125 17.421875 -5.460938 18.265625 -5.734375 C 19.109375 -6.003906 19.726562 -6.265625 20.125 -6.515625 L 20.734375 -6.9375 L 23.234375 -1.90625 C 23.148438 -1.84375 23.035156 -1.757812 22.890625 -1.65625 C 22.742188 -1.550781 22.40625 -1.359375 21.875 -1.078125 C 21.34375 -0.796875 20.769531 -0.550781 20.15625 -0.34375 C 19.550781 -0.132812 18.757812 0.0507812 17.78125 0.21875 C 16.800781 0.382812 15.785156 0.46875 14.734375 0.46875 C 12.328125 0.46875 10.046875 -0.117188 7.890625 -1.296875 C 5.742188 -2.484375 4.007812 -4.109375 2.6875 -6.171875 C 1.375 -8.242188 0.71875 -10.484375 0.71875 -12.890625 C 0.71875 -14.703125 1.101562 -16.445312 1.875 -18.125 C 2.65625 -19.800781 3.6875 -21.234375 4.96875 -22.421875 C 6.257812 -23.609375 7.757812 -24.554688 9.46875 -25.265625 C 11.1875 -25.984375 12.941406 -26.34375 14.734375 -26.34375 C 16.410156 -26.34375 17.953125 -26.144531 19.359375 -25.75 C 20.773438 -25.351562 21.773438 -24.953125 22.359375 -24.546875 L 23.234375 -23.953125 L 20.734375 -18.9375 C 20.585938 -19.0625 20.363281 -19.210938 20.0625 -19.390625 C 19.769531 -19.566406 19.1875 -19.800781 18.3125 -20.09375 C 17.4375 -20.394531 16.546875 -20.546875 15.640625 -20.546875 C 14.222656 -20.546875 12.945312 -20.3125 11.8125 -19.84375 C 10.6875 -19.382812 9.796875 -18.78125 9.140625 -18.03125 C 8.484375 -17.28125 7.984375 -16.46875 7.640625 -15.59375 C 7.296875 -14.726562 7.125 -13.847656 7.125 -12.953125 C 7.125 -10.984375 7.859375 -9.21875 9.328125 -7.65625 C 10.804688 -6.101562 12.910156 -5.328125 15.640625 -5.328125 Z M 15.640625 -5.328125 "/></g></g></g><g fill="#264790" fill-opacity="1"><g transform="translate(146.960975, 204.151063)"><g><path d="M 3.390625 -1.90625 C 1.609375 -3.5 0.71875 -5.539062 0.71875 -8.03125 C 0.71875 -10.519531 1.644531 -12.5625 3.5 -14.15625 C 5.363281 -15.757812 7.664062 -16.5625 10.40625 -16.5625 C 13.101562 -16.5625 15.375 -15.753906 17.21875 -14.140625 C 19.070312 -12.535156 20 -10.5 20 -8.03125 C 20 -5.5625 19.09375 -3.523438 17.28125 -1.921875 C 15.476562 -0.328125 13.1875 0.46875 10.40625 0.46875 C 7.519531 0.46875 5.179688 -0.320312 3.390625 -1.90625 Z M 7.6875 -10.75 C 6.96875 -10.039062 6.609375 -9.128906 6.609375 -8.015625 C 6.609375 -6.910156 6.953125 -6.007812 7.640625 -5.3125 C 8.335938 -4.613281 9.25 -4.265625 10.375 -4.265625 C 11.46875 -4.265625 12.363281 -4.617188 13.0625 -5.328125 C 13.757812 -6.035156 14.109375 -6.9375 14.109375 -8.03125 C 14.109375 -9.132812 13.75 -10.039062 13.03125 -10.75 C 12.3125 -11.46875 11.425781 -11.828125 10.375 -11.828125 C 9.3125 -11.828125 8.414062 -11.46875 7.6875 -10.75 Z M 7.6875 -10.75 "/></g></g></g><g fill="#264790" fill-opacity="1"><g transform="translate(165.335617, 204.151063)"><g><path d="M 1.15625 3.953125 L 5.703125 1.71875 C 6.546875 3.101562 8 3.796875 10.0625 3.796875 C 11.03125 3.796875 11.925781 3.484375 12.75 2.859375 C 13.570312 2.242188 13.984375 1.300781 13.984375 0.03125 L 13.984375 -1.15625 C 13.003906 -0.0703125 11.25 0.46875 8.71875 0.46875 C 6.394531 0.46875 4.476562 -0.347656 2.96875 -1.984375 C 1.46875 -3.628906 0.71875 -5.644531 0.71875 -8.03125 C 0.71875 -10.414062 1.46875 -12.429688 2.96875 -14.078125 C 4.476562 -15.734375 6.394531 -16.5625 8.71875 -16.5625 C 10.789062 -16.5625 12.515625 -15.921875 13.890625 -14.640625 L 13.984375 -14.640625 L 13.984375 -16.09375 L 19.53125 -16.09375 L 19.53125 0.4375 C 19.53125 3.050781 18.660156 5.066406 16.921875 6.484375 C 15.191406 7.910156 12.90625 8.625 10.0625 8.625 C 5.46875 8.625 2.5 7.066406 1.15625 3.953125 Z M 7.6875 -10.75 C 6.96875 -10.039062 6.609375 -9.128906 6.609375 -8.015625 C 6.609375 -6.910156 6.953125 -6.007812 7.640625 -5.3125 C 8.335938 -4.613281 9.25 -4.265625 10.375 -4.265625 C 11.46875 -4.265625 12.363281 -4.617188 13.0625 -5.328125 C 13.757812 -6.035156 14.109375 -6.9375 14.109375 -8.03125 C 14.109375 -9.132812 13.75 -10.039062 13.03125 -10.75 C 12.3125 -11.46875 11.425781 -11.828125 10.375 -11.828125 C 9.3125 -11.828125 8.414062 -11.46875 7.6875 -10.75 Z M 7.6875 -10.75 "/></g></g></g><g fill="#264790" fill-opacity="1"><g transform="translate(184.400095, 204.151063)"><g><path d="M 1.875 0 L 1.875 -16.09375 L 7.4375 -16.09375 L 7.4375 -14.390625 L 7.5 -14.390625 C 8.9375 -15.835938 10.472656 -16.5625 12.109375 -16.5625 C 12.898438 -16.5625 13.6875 -16.457031 14.46875 -16.25 C 15.25 -16.039062 16 -15.710938 16.71875 -15.265625 C 17.445312 -14.828125 18.035156 -14.207031 18.484375 -13.40625 C 18.929688 -12.601562 19.15625 -11.664062 19.15625 -10.59375 L 19.15625 0 L 13.609375 0 L 13.609375 -9.09375 C 13.609375 -9.925781 13.34375 -10.65625 12.8125 -11.28125 C 12.28125 -11.914062 11.582031 -12.234375 10.71875 -12.234375 C 9.882812 -12.234375 9.128906 -11.90625 8.453125 -11.25 C 7.773438 -10.601562 7.4375 -9.882812 7.4375 -9.09375 L 7.4375 0 Z M 1.875 0 "/></g></g></g><g fill="#264790" fill-opacity="1"><g transform="translate(202.774736, 204.151063)"><g><path d="M 2.40625 -25.046875 C 3.0625 -25.703125 3.835938 -26.03125 4.734375 -26.03125 C 5.628906 -26.03125 6.398438 -25.703125 7.046875 -25.046875 C 7.703125 -24.398438 8.03125 -23.628906 8.03125 -22.734375 C 8.03125 -21.835938 7.703125 -21.0625 7.046875 -20.40625 C 6.398438 -19.757812 5.628906 -19.4375 4.734375 -19.4375 C 3.835938 -19.4375 3.0625 -19.757812 2.40625 -20.40625 C 1.757812 -21.0625 1.4375 -21.835938 1.4375 -22.734375 C 1.4375 -23.628906 1.757812 -24.398438 2.40625 -25.046875 Z M 1.875 -16.09375 L 1.875 0 L 7.4375 0 L 7.4375 -16.09375 Z M 1.875 -16.09375 "/></g></g></g><g fill="#264790" fill-opacity="1"><g transform="translate(209.892479, 204.151063)"><g><path d="M 2.828125 -16.09375 L 2.828125 -22.078125 L 8.375 -22.078125 L 8.375 -16.09375 L 11.765625 -16.09375 L 11.765625 -11.859375 L 8.375 -11.859375 L 8.375 -6.75 C 8.375 -5.257812 8.789062 -4.515625 9.625 -4.515625 C 9.832031 -4.515625 10.050781 -4.554688 10.28125 -4.640625 C 10.507812 -4.722656 10.6875 -4.804688 10.8125 -4.890625 L 11 -5.015625 L 12.390625 -0.53125 C 11.191406 0.132812 9.832031 0.46875 8.3125 0.46875 C 7.269531 0.46875 6.367188 0.285156 5.609375 -0.078125 C 4.859375 -0.441406 4.289062 -0.929688 3.90625 -1.546875 C 3.519531 -2.171875 3.242188 -2.820312 3.078125 -3.5 C 2.910156 -4.175781 2.828125 -4.898438 2.828125 -5.671875 L 2.828125 -11.859375 L 0.5 -11.859375 L 0.5 -16.09375 Z M 2.828125 -16.09375 "/></g></g></g><g fill="#264790" fill-opacity="1"><g transform="translate(219.926362, 204.151063)"><g><path d="M 2.40625 -25.046875 C 3.0625 -25.703125 3.835938 -26.03125 4.734375 -26.03125 C 5.628906 -26.03125 6.398438 -25.703125 7.046875 -25.046875 C 7.703125 -24.398438 8.03125 -23.628906 8.03125 -22.734375 C 8.03125 -21.835938 7.703125 -21.0625 7.046875 -20.40625 C 6.398438 -19.757812 5.628906 -19.4375 4.734375 -19.4375 C 3.835938 -19.4375 3.0625 -19.757812 2.40625 -20.40625 C 1.757812 -21.0625 1.4375 -21.835938 1.4375 -22.734375 C 1.4375 -23.628906 1.757812 -24.398438 2.40625 -25.046875 Z M 1.875 -16.09375 L 1.875 0 L 7.4375 0 L 7.4375 -16.09375 Z M 1.875 -16.09375 "/></g></g></g><g fill="#264790" fill-opacity="1"><g transform="translate(227.044105, 204.151063)"><g><path d="M 1.875 -25.875 L 11.328125 -25.875 C 13.953125 -25.875 16.082031 -25.191406 17.71875 -23.828125 C 19.351562 -22.472656 20.171875 -20.5 20.171875 -17.90625 C 20.171875 -15.3125 19.34375 -13.273438 17.6875 -11.796875 C 16.03125 -10.328125 13.910156 -9.59375 11.328125 -9.59375 L 7.78125 -9.59375 L 7.78125 0 L 1.875 0 Z M 7.78125 -14.296875 L 9.4375 -14.296875 C 10.757812 -14.296875 11.84375 -14.5625 12.6875 -15.09375 C 13.53125 -15.632812 13.953125 -16.507812 13.953125 -17.71875 C 13.953125 -18.945312 13.53125 -19.828125 12.6875 -20.359375 C 11.84375 -20.898438 10.757812 -21.171875 9.4375 -21.171875 L 7.78125 -21.171875 Z M 7.78125 -14.296875 "/></g></g></g><g fill="#264790" fill-opacity="1"><g transform="translate(245.575524, 204.151063)"><g><path d="M 2.96875 -1.984375 C 1.46875 -3.628906 0.71875 -5.644531 0.71875 -8.03125 C 0.71875 -10.414062 1.46875 -12.429688 2.96875 -14.078125 C 4.476562 -15.734375 6.394531 -16.5625 8.71875 -16.5625 C 10.851562 -16.5625 12.609375 -15.890625 13.984375 -14.546875 L 13.984375 -16.09375 L 19.53125 -16.09375 L 19.53125 0 L 14.046875 0 L 14.046875 -1.8125 L 13.984375 -1.8125 C 12.609375 -0.289062 10.851562 0.46875 8.71875 0.46875 C 6.394531 0.46875 4.476562 -0.347656 2.96875 -1.984375 Z M 7.6875 -10.75 C 6.96875 -10.039062 6.609375 -9.128906 6.609375 -8.015625 C 6.609375 -6.910156 6.953125 -6.007812 7.640625 -5.3125 C 8.335938 -4.613281 9.25 -4.265625 10.375 -4.265625 C 11.46875 -4.265625 12.363281 -4.617188 13.0625 -5.328125 C 13.757812 -6.035156 14.109375 -6.9375 14.109375 -8.03125 C 14.109375 -9.132812 13.75 -10.039062 13.03125 -10.75 C 12.3125 -11.46875 11.425781 -11.828125 10.375 -11.828125 C 9.3125 -11.828125 8.414062 -11.46875 7.6875 -10.75 Z M 7.6875 -10.75 "/></g></g></g><g fill="#264790" fill-opacity="1"><g transform="translate(264.640007, 204.151063)"><g><path d="M 2.828125 -16.09375 L 2.828125 -22.078125 L 8.375 -22.078125 L 8.375 -16.09375 L 11.765625 -16.09375 L 11.765625 -11.859375 L 8.375 -11.859375 L 8.375 -6.75 C 8.375 -5.257812 8.789062 -4.515625 9.625 -4.515625 C 9.832031 -4.515625 10.050781 -4.554688 10.28125 -4.640625 C 10.507812 -4.722656 10.6875 -4.804688 10.8125 -4.890625 L 11 -5.015625 L 12.390625 -0.53125 C 11.191406 0.132812 9.832031 0.46875 8.3125 0.46875 C 7.269531 0.46875 6.367188 0.285156 5.609375 -0.078125 C 4.859375 -0.441406 4.289062 -0.929688 3.90625 -1.546875 C 3.519531 -2.171875 3.242188 -2.820312 3.078125 -3.5 C 2.910156 -4.175781 2.828125 -4.898438 2.828125 -5.671875 L 2.828125 -11.859375 L 0.5 -11.859375 L 0.5 -16.09375 Z M 2.828125 -16.09375 "/></g></g></g><g fill="#264790" fill-opacity="1"><g transform="translate(274.673889, 204.151063)"><g><path d="M 1.875 0 L 1.875 -26.96875 L 7.4375 -26.96875 L 7.4375 -14.390625 L 7.5 -14.390625 C 8.9375 -15.835938 10.472656 -16.5625 12.109375 -16.5625 C 12.898438 -16.5625 13.6875 -16.457031 14.46875 -16.25 C 15.25 -16.039062 16 -15.710938 16.71875 -15.265625 C 17.445312 -14.828125 18.035156 -14.207031 18.484375 -13.40625 C 18.929688 -12.601562 19.15625 -11.664062 19.15625 -10.59375 L 19.15625 0 L 13.609375 0 L 13.609375 -9.09375 C 13.609375 -9.925781 13.34375 -10.65625 12.8125 -11.28125 C 12.28125 -11.914062 11.582031 -12.234375 10.71875 -12.234375 C 9.882812 -12.234375 9.128906 -11.90625 8.453125 -11.25 C 7.773438 -10.601562 7.4375 -9.882812 7.4375 -9.09375 L 7.4375 0 Z M 1.875 0 "/></g></g></g><g fill="#264790" fill-opacity="1"><g transform="translate(136.758531, 221.895816)"><g><path d="M 5.421875 0 L 4.25 0 L 3.828125 -1.296875 L 1.65625 -1.296875 L 1.234375 0 L 0.078125 0 L 2.03125 -5.65625 L 3.46875 -5.65625 Z M 2.6875 -4.46875 L 1.96875 -2.25 L 3.515625 -2.25 L 2.78125 -4.46875 Z M 2.6875 -4.46875 "/></g></g></g><g fill="#264790" fill-opacity="1"><g transform="translate(145.470089, 221.895816)"><g><path d="M 1.859375 0 L 0.734375 0 L 0.734375 -5.65625 L 1.859375 -5.65625 Z M 1.859375 0 "/></g></g></g><g fill="#264790" fill-opacity="1"><g transform="translate(151.265329, 221.895816)"><g/></g></g><g fill="#264790" fill-opacity="1"><g transform="translate(156.338256, 221.895816)"><g><path d="M 1.859375 -5.65625 L 1.859375 -0.9375 L 4.390625 -0.9375 L 4.390625 0 L 0.734375 0 L 0.734375 -5.65625 Z M 1.859375 -5.65625 "/></g></g></g><g fill="#264790" fill-opacity="1"><g transform="translate(164.118907, 221.895816)"><g><path d="M 1.859375 -2.484375 L 1.859375 -0.9375 L 4.546875 -0.9375 L 4.546875 0 L 0.734375 0 L 0.734375 -5.65625 L 4.484375 -5.65625 L 4.484375 -4.71875 L 1.859375 -4.71875 L 1.859375 -3.390625 L 4.15625 -3.390625 L 4.15625 -2.484375 Z M 1.859375 -2.484375 "/></g></g></g><g fill="#264790" fill-opacity="1"><g transform="translate(172.181536, 221.895816)"><g><path d="M 5.421875 0 L 4.25 0 L 3.828125 -1.296875 L 1.65625 -1.296875 L 1.234375 0 L 0.078125 0 L 2.03125 -5.65625 L 3.46875 -5.65625 Z M 2.6875 -4.46875 L 1.96875 -2.25 L 3.515625 -2.25 L 2.78125 -4.46875 Z M 2.6875 -4.46875 "/></g></g></g><g fill="#264790" fill-opacity="1"><g transform="translate(180.893093, 221.895816)"><g><path d="M 0.734375 0 L 0.734375 -5.65625 L 3 -5.65625 C 3.59375 -5.65625 4.035156 -5.519531 4.328125 -5.25 C 4.628906 -4.976562 4.78125 -4.609375 4.78125 -4.140625 C 4.78125 -3.796875 4.691406 -3.515625 4.515625 -3.296875 C 4.335938 -3.078125 4.078125 -2.90625 3.734375 -2.78125 L 3.734375 -2.703125 C 3.910156 -2.628906 4.050781 -2.515625 4.15625 -2.359375 C 4.269531 -2.210938 4.378906 -1.988281 4.484375 -1.6875 L 5.046875 0 L 3.890625 0 L 3.34375 -1.6875 C 3.28125 -1.863281 3.210938 -2 3.140625 -2.09375 C 3.078125 -2.1875 2.988281 -2.253906 2.875 -2.296875 C 2.769531 -2.335938 2.628906 -2.359375 2.453125 -2.359375 L 1.859375 -2.359375 L 1.859375 0 Z M 2.875 -3.234375 C 3.414062 -3.234375 3.6875 -3.488281 3.6875 -4 C 3.6875 -4.507812 3.414062 -4.765625 2.875 -4.765625 L 1.859375 -4.765625 L 1.859375 -3.234375 Z M 2.875 -3.234375 "/></g></g></g><g fill="#264790" fill-opacity="1"><g transform="translate(189.380616, 221.895816)"><g><path d="M 1.8125 0 L 0.734375 0 L 0.734375 -5.65625 L 2.015625 -5.65625 L 4.28125 -2.015625 L 4.390625 -2.03125 L 4.390625 -5.65625 L 5.46875 -5.65625 L 5.46875 0 L 4.3125 0 L 1.921875 -3.890625 L 1.8125 -3.875 Z M 1.8125 0 "/></g></g></g><g fill="#264790" fill-opacity="1"><g transform="translate(198.779728, 221.895816)"><g><path d="M 1.859375 0 L 0.734375 0 L 0.734375 -5.65625 L 1.859375 -5.65625 Z M 1.859375 0 "/></g></g></g><g fill="#264790" fill-opacity="1"><g transform="translate(204.574969, 221.895816)"><g><path d="M 1.8125 0 L 0.734375 0 L 0.734375 -5.65625 L 2.015625 -5.65625 L 4.28125 -2.015625 L 4.390625 -2.03125 L 4.390625 -5.65625 L 5.46875 -5.65625 L 5.46875 0 L 4.3125 0 L 1.921875 -3.890625 L 1.8125 -3.875 Z M 1.8125 0 "/></g></g></g><g fill="#264790" fill-opacity="1"><g transform="translate(213.97408, 221.895816)"><g><path d="M 2.75 0.078125 C 2.269531 0.078125 1.859375 -0.0234375 1.515625 -0.234375 C 1.171875 -0.453125 0.90625 -0.78125 0.71875 -1.21875 C 0.53125 -1.65625 0.4375 -2.191406 0.4375 -2.828125 C 0.4375 -3.472656 0.550781 -4.007812 0.78125 -4.4375 C 1.007812 -4.875 1.320312 -5.195312 1.71875 -5.40625 C 2.113281 -5.625 2.578125 -5.734375 3.109375 -5.734375 C 3.648438 -5.734375 4.109375 -5.632812 4.484375 -5.4375 C 4.867188 -5.238281 5.140625 -4.9375 5.296875 -4.53125 L 4.46875 -4.046875 L 4.375 -4.046875 C 4.257812 -4.296875 4.097656 -4.476562 3.890625 -4.59375 C 3.679688 -4.707031 3.421875 -4.765625 3.109375 -4.765625 C 2.617188 -4.765625 2.242188 -4.609375 1.984375 -4.296875 C 1.722656 -3.992188 1.59375 -3.503906 1.59375 -2.828125 C 1.59375 -2.140625 1.710938 -1.640625 1.953125 -1.328125 C 2.203125 -1.023438 2.5625 -0.875 3.03125 -0.875 C 3.4375 -0.875 3.734375 -0.960938 3.921875 -1.140625 C 4.117188 -1.328125 4.21875 -1.601562 4.21875 -1.96875 L 4.21875 -2.21875 L 2.875 -2.21875 L 2.875 -3.125 L 5.328125 -3.125 L 5.328125 0 L 4.265625 0 L 4.265625 -0.765625 L 4.1875 -0.765625 C 4.0625 -0.492188 3.878906 -0.285156 3.640625 -0.140625 C 3.410156 0.00390625 3.113281 0.078125 2.75 0.078125 Z M 2.75 0.078125 "/></g></g></g><g fill="#264790" fill-opacity="1"><g transform="translate(223.071904, 221.895816)"><g/></g></g><g fill="#264790" fill-opacity="1"><g transform="translate(228.14483, 221.895816)"><g><path d="M 2.921875 -5.65625 C 3.328125 -5.65625 3.671875 -5.578125 3.953125 -5.421875 C 4.242188 -5.273438 4.460938 -5.066406 4.609375 -4.796875 C 4.753906 -4.535156 4.828125 -4.226562 4.828125 -3.875 C 4.828125 -3.519531 4.753906 -3.207031 4.609375 -2.9375 C 4.460938 -2.675781 4.242188 -2.472656 3.953125 -2.328125 C 3.671875 -2.179688 3.328125 -2.109375 2.921875 -2.109375 L 1.859375 -2.109375 L 1.859375 0 L 0.734375 0 L 0.734375 -5.65625 Z M 2.765625 -3 C 3.390625 -3 3.703125 -3.289062 3.703125 -3.875 C 3.703125 -4.46875 3.390625 -4.765625 2.765625 -4.765625 L 1.859375 -4.765625 L 1.859375 -3 Z M 2.765625 -3 "/></g></g></g><g fill="#264790" fill-opacity="1"><g transform="translate(236.512607, 221.895816)"><g><path d="M 5.421875 0 L 4.25 0 L 3.828125 -1.296875 L 1.65625 -1.296875 L 1.234375 0 L 0.078125 0 L 2.03125 -5.65625 L 3.46875 -5.65625 Z M 2.6875 -4.46875 L 1.96875 -2.25 L 3.515625 -2.25 L 2.78125 -4.46875 Z M 2.6875 -4.46875 "/></g></g></g><g fill="#264790" fill-opacity="1"><g transform="translate(245.224164, 221.895816)"><g><path d="M 0.734375 0 L 0.734375 -5.65625 L 3 -5.65625 C 3.59375 -5.65625 4.035156 -5.519531 4.328125 -5.25 C 4.628906 -4.976562 4.78125 -4.609375 4.78125 -4.140625 C 4.78125 -3.796875 4.691406 -3.515625 4.515625 -3.296875 C 4.335938 -3.078125 4.078125 -2.90625 3.734375 -2.78125 L 3.734375 -2.703125 C 3.910156 -2.628906 4.050781 -2.515625 4.15625 -2.359375 C 4.269531 -2.210938 4.378906 -1.988281 4.484375 -1.6875 L 5.046875 0 L 3.890625 0 L 3.34375 -1.6875 C 3.28125 -1.863281 3.210938 -2 3.140625 -2.09375 C 3.078125 -2.1875 2.988281 -2.253906 2.875 -2.296875 C 2.769531 -2.335938 2.628906 -2.359375 2.453125 -2.359375 L 1.859375 -2.359375 L 1.859375 0 Z M 2.875 -3.234375 C 3.414062 -3.234375 3.6875 -3.488281 3.6875 -4 C 3.6875 -4.507812 3.414062 -4.765625 2.875 -4.765625 L 1.859375 -4.765625 L 1.859375 -3.234375 Z M 2.875 -3.234375 "/></g></g></g><g fill="#264790" fill-opacity="1"><g transform="translate(253.711687, 221.895816)"><g><path d="M 4.53125 -5.65625 L 4.53125 -4.71875 L 2.90625 -4.71875 L 2.90625 0 L 1.78125 0 L 1.78125 -4.71875 L 0.15625 -4.71875 L 0.15625 -5.65625 Z M 4.53125 -5.65625 "/></g></g></g><g fill="#264790" fill-opacity="1"><g transform="translate(261.600492, 221.895816)"><g><path d="M 1.8125 0 L 0.734375 0 L 0.734375 -5.65625 L 2.015625 -5.65625 L 4.28125 -2.015625 L 4.390625 -2.03125 L 4.390625 -5.65625 L 5.46875 -5.65625 L 5.46875 0 L 4.3125 0 L 1.921875 -3.890625 L 1.8125 -3.875 Z M 1.8125 0 "/></g></g></g><g fill="#264790" fill-opacity="1"><g transform="translate(270.999604, 221.895816)"><g><path d="M 1.859375 -2.484375 L 1.859375 -0.9375 L 4.546875 -0.9375 L 4.546875 0 L 0.734375 0 L 0.734375 -5.65625 L 4.484375 -5.65625 L 4.484375 -4.71875 L 1.859375 -4.71875 L 1.859375 -3.390625 L 4.15625 -3.390625 L 4.15625 -2.484375 Z M 1.859375 -2.484375 "/></g></g></g><g fill="#264790" fill-opacity="1"><g transform="translate(279.062241, 221.895816)"><g><path d="M 0.734375 0 L 0.734375 -5.65625 L 3 -5.65625 C 3.59375 -5.65625 4.035156 -5.519531 4.328125 -5.25 C 4.628906 -4.976562 4.78125 -4.609375 4.78125 -4.140625 C 4.78125 -3.796875 4.691406 -3.515625 4.515625 -3.296875 C 4.335938 -3.078125 4.078125 -2.90625 3.734375 -2.78125 L 3.734375 -2.703125 C 3.910156 -2.628906 4.050781 -2.515625 4.15625 -2.359375 C 4.269531 -2.210938 4.378906 -1.988281 4.484375 -1.6875 L 5.046875 0 L 3.890625 0 L 3.34375 -1.6875 C 3.28125 -1.863281 3.210938 -2 3.140625 -2.09375 C 3.078125 -2.1875 2.988281 -2.253906 2.875 -2.296875 C 2.769531 -2.335938 2.628906 -2.359375 2.453125 -2.359375 L 1.859375 -2.359375 L 1.859375 0 Z M 2.875 -3.234375 C 3.414062 -3.234375 3.6875 -3.488281 3.6875 -4 C 3.6875 -4.507812 3.414062 -4.765625 2.875 -4.765625 L 1.859375 -4.765625 L 1.859375 -3.234375 Z M 2.875 -3.234375 "/></g></g></g></svg>